<?xml version="1.0" encoding="UTF-8" standalone="no"?>
<!-- Created with Inkscape (http://www.inkscape.org/) -->

<svg
   xmlns:dc="http://purl.org/dc/elements/1.1/"
   xmlns:cc="http://creativecommons.org/ns#"
   xmlns:rdf="http://www.w3.org/1999/02/22-rdf-syntax-ns#"
   xmlns:svg="http://www.w3.org/2000/svg"
   xmlns="http://www.w3.org/2000/svg"
   xmlns:sodipodi="http://sodipodi.sourceforge.net/DTD/sodipodi-0.dtd"
   xmlns:inkscape="http://www.inkscape.org/namespaces/inkscape"
   version="1.1"
   id="svg2614"
   width="380"
   height="380"
   viewBox="0 0 380 380"
   sodipodi:docname="LC.svg"
   inkscape:version="0.92.3 (2405546, 2018-03-11)"
   inkscape:export-filename="/home/francois/Documents/dc-logos/LC-square.png"
   inkscape:export-xdpi="126.32"
   inkscape:export-ydpi="126.32">
  <metadata
     id="metadata2620">
    <rdf:RDF>
      <cc:Work
         rdf:about="">
        <dc:format>image/svg+xml</dc:format>
        <dc:type
           rdf:resource="http://purl.org/dc/dcmitype/StillImage" />
        <dc:title></dc:title>
      </cc:Work>
    </rdf:RDF>
  </metadata>
  <defs
     id="defs2618" />
  <sodipodi:namedview
     pagecolor="#ffffff"
     bordercolor="#666666"
     borderopacity="1"
     objecttolerance="10"
     gridtolerance="10"
     guidetolerance="10"
     inkscape:pageopacity="0"
     inkscape:pageshadow="2"
     inkscape:window-width="3840"
     inkscape:window-height="2031"
     id="namedview2616"
     showgrid="false"
     inkscape:zoom="2.3565789"
     inkscape:cx="154.54254"
     inkscape:cy="197.546"
     inkscape:window-x="0"
     inkscape:window-y="55"
     inkscape:window-maximized="1"
     inkscape:current-layer="svg2614" />
  <path
     inkscape:connector-curvature="0"
     id="path2626"
     d="m 315.48075,374.22912 c -0.57636,-0.69447 -1.19396,-3.05697 -1.37245,-5.25 l -0.32451,-3.98732 -26.08207,-0.26628 -26.08207,-0.26627 -1.14649,2.51627 c -0.99851,2.1915 -1.78081,2.51628 -6.06094,2.51628 -3.55885,0 -5.08188,-0.43632 -5.52144,-1.58179 -1.10624,-2.88281 -0.65552,-15.96968 0.59301,-17.21821 1.9683,-1.9683 8.47348,-1.46685 10.6014,0.81721 1.8044,1.93679 2.9122,2.00655 27.78896,1.75 l 25.90964,-0.26721 0.30947,-3.73495 c 0.20474,-2.47099 1.05077,-4.2532 2.5,-5.26635 2.03453,-1.42234 2.22614,-2.54503 2.69053,-15.76505 l 0.5,-14.23365 h 5 5 l 0.5,14.28915 c 0.4903,14.01184 1.03752,16.12577 4.1925,16.19554 0.38088,0.008 0.83088,1.92781 1,4.26531 l 0.3075,4.25 7.70868,0.29132 c 6.65927,0.25166 7.98657,0.0134 9.75,-1.75 1.81842,-1.81842 3.29706,-2.04132 13.54132,-2.04132 h 11.5 v 10 10 h -11.54775 c -11.08835,0 -11.64161,-0.10127 -13.90701,-2.54569 -2.17619,-2.34814 -2.92906,-2.52274 -9.70225,-2.25 l -7.34299,0.29569 -0.31891,4.48357 c -0.1754,2.46597 -0.8504,4.82158 -1.5,5.23469 -2.05644,1.3078 -17.32942,0.91041 -18.48413,-0.48094 z M 52.533792,308.82952 c -0.992301,-0.4004 -1.25,-31.82339 -1.25,-152.42105 V 4.4918021 h 18.5 18.500001 v 4.8930112 c 0,5.7431317 -0.54487,6.1069887 -9.145147,6.1069887 h -5.981571 l 0.313359,3.25 0.313358,3.25 7.28338,0.294483 7.283381,0.294484 -0.28338,10.705516 -0.28338,10.705517 -4,0.5 c -3.641082,0.455135 -4.027715,0.786205 -4.308857,3.689626 -0.300222,3.100472 -0.188417,3.198302 3.999997,3.5 l 4.30886,0.310374 0.28684,10.418214 c 0.21094,7.661415 -0.0537,10.634265 -1,11.234688 -0.70776,0.44906 -4.12785,0.823363 -7.600199,0.831785 l -6.313359,0.01531 0.313359,3.25 0.313358,3.25 7.25,0.29381 7.250001,0.293809 V 92.478111 103.3768 l -4.25,0.3075 c -3.971,0.28731 -4.270277,0.51689 -4.558857,3.49713 -0.300222,3.10047 -0.188417,3.1983 3.999997,3.5 l 4.30886,0.31037 0.28684,10.41821 c 0.21094,7.66142 -0.0537,10.63427 -1,11.23469 -0.70776,0.44906 -4.12785,0.82337 -7.600199,0.83179 l -6.313359,0.0153 0.313359,3.25 0.313358,3.25 7.25,0.29381 7.250001,0.29381 v 10.89869 10.89869 l -4.25,0.3075 c -3.989148,0.28863 -4.269234,0.50698 -4.563359,3.5575 -0.29632,3.07328 -0.133192,3.25083 2.999999,3.26531 5.65102,0.0261 5.91598,0.59703 5.6002,12.06648 l -0.28684,10.41821 -7.310002,0.29502 -7.31,0.29502 0.31,3.20498 0.310001,3.20498 7,0.5 7.000001,0.5 0.28323,10.69088 0.28323,10.69088 -4.28323,0.30912 c -4.026285,0.29058 -4.302029,0.50408 -4.596589,3.55912 -0.290223,3.01005 -0.09322,3.25 2.668212,3.25 6.556437,0 6.145147,-2.71062 6.145147,40.5 0,34.90122 -0.17655,39.35377 -1.58179,39.89301 -1.88129,0.72192 -32.364324,0.67259 -34.168211,-0.0553 z m 21.67742,-27.97258 c 2.548859,-3.24035 2.618592,-5.46928 0.262152,-8.37936 -3.461575,-4.27486 -11.189572,-1.5191 -11.189572,3.99015 0,2.80665 3.902756,7.02407 6.5,7.02407 1.352903,0 3.236681,-1.12108 4.42742,-2.63486 z M 310.28379,307.4918 c -1.1,-1.1 -2,-2.45 -2,-3 0,-0.64973 -13.78829,-1 -39.36486,-1 H 229.55408 L 201.41893,274.98744 173.28379,246.48309 V 154.85914 63.235202 l 28.75,-29.273563 28.75,-29.2735617 53.27475,-0.098138 53.27475,-0.098138 1.07553,2.75 c 0.69043,1.765326 0.95011,10.4312807 0.72525,24.2022937 l -0.35028,21.452294 2.5,0.588344 c 2.22976,0.524746 2.53326,1.168255 2.80765,5.953061 0.20725,3.613988 -0.11909,5.635362 -1,6.194049 -2.17704,1.380716 -49.20287,1.06474 -50.60765,-0.340042 -1.55432,-1.554321 -1.55432,-9.045679 0,-10.6 0.66,-0.66 2.00143,-1.2 2.98095,-1.2 1.88439,0 3.50255,-4.085064 2.35418,-5.943165 -0.43094,-0.697264 -9.23744,-1.056835 -25.88367,-1.056835 h -25.23051 l -16.21047,16.318525 -16.21048,16.318524 0.026,74.93147 0.026,74.93148 15.72399,16.30221 15.72399,16.30221 31.45524,-0.30221 31.45524,-0.30221 0.58839,-2.5 c 0.58534,-2.48706 0.65471,-2.50145 13.4053,-2.7807 8.59586,-0.18826 13.27451,0.0991 14.20637,0.87244 1.11621,0.92637 1.38946,5.93323 1.38946,25.45928 0,20.76314 -0.22906,24.53518 -1.57143,25.87755 -1.24524,1.24524 -3.94372,1.57143 -13,1.57143 -10.09524,0 -11.6619,-0.23333 -13.42857,-2 z M 199.61311,223.51227 c 1.8391,-2.18564 2.67986,-4.65027 3.15547,-9.25 0.3566,-3.44876 0.50591,-33.94547 0.33179,-67.77047 -0.34963,-67.921275 -0.18845,-66.254537 -6.66673,-68.937928 -3.77155,-1.562228 -8.33292,0.551473 -10.02961,4.647639 -0.85249,2.05809 -1.08947,20.936969 -0.89085,70.966999 l 0.27061,68.16297 2.42431,2.58016 c 3.44846,3.67014 8.11835,3.50661 11.40501,-0.39937 z m -79.68254,81.88015 c -3.08904,-0.48651 -8.54167,-2.89487 -15,-6.62533 l -10.146777,-5.86097 -0.27477,-16.20716 -0.27477,-16.20716 h 42.788657 42.78867 l 13.2361,13.26341 c 7.27986,7.29487 13.23611,13.76786 13.23611,14.38441 0,0.76553 -6.10428,1.33764 -19.25,1.80416 -23.18017,0.82262 -28.98729,2.05724 -37.79148,8.03464 -3.59782,2.44265 -8.09782,5.0734 -10,5.84611 -4.49404,1.82558 -13.19185,2.53174 -19.31174,1.56789 z M 25.423253,288.34438 C 20.615932,286.961 15.345029,283.40886 11.057554,278.66314 6.8764766,274.03519 0.90222858,262.9182 1.8083526,261.45206 2.1577696,260.88669 11.219067,260.4918 23.842809,260.4918 h 21.440983 v 14.5 14.5 l -8.25,-0.0902 c -4.5375,-0.0496 -9.762242,-0.52536 -11.610539,-1.05723 z M 320.56626,250.68754 c -0.82286,-0.52286 -1.30909,-4.79277 -1.5,-13.17269 l -0.28247,-12.39905 -3.20801,-0.82971 c -2.61201,-0.67557 -3.32635,-1.46051 -3.84498,-4.22506 -0.35033,-1.86744 -0.3346,-4.34805 0.035,-5.51245 0.64257,-2.02457 1.20401,-2.10486 12.84498,-1.83694 l 12.17301,0.28016 0.31111,4.3239 c 0.35608,4.949 -1.01987,7.1761 -4.43355,7.1761 -2.37625,0 -2.37756,0.007 -2.37756,12.46482 0,11.30014 -0.18073,12.56154 -1.93426,13.5 -2.2714,1.21561 -6.05683,1.32792 -7.78327,0.23092 z"
     style="fill:#787878" />
</svg>
