<?xml version="1.0" encoding="UTF-8" standalone="no"?>
<!-- Created with Inkscape (http://www.inkscape.org/) -->

<svg
   xmlns:dc="http://purl.org/dc/elements/1.1/"
   xmlns:cc="http://creativecommons.org/ns#"
   xmlns:rdf="http://www.w3.org/1999/02/22-rdf-syntax-ns#"
   xmlns:svg="http://www.w3.org/2000/svg"
   xmlns="http://www.w3.org/2000/svg"
   xmlns:sodipodi="http://sodipodi.sourceforge.net/DTD/sodipodi-0.dtd"
   xmlns:inkscape="http://www.inkscape.org/namespaces/inkscape"
   version="1.1"
   id="svg1437"
   width="200"
   height="200"
   viewBox="0 0 200 200"
   sodipodi:docname="SWC_sqaure.svg"
   inkscape:version="0.92.3 (2405546, 2018-03-11)"
   inkscape:export-filename="/home/francois/Documents/dc-logos/SWC_square.png"
   inkscape:export-xdpi="240"
   inkscape:export-ydpi="240">
  <metadata
     id="metadata1443">
    <rdf:RDF>
      <cc:Work
         rdf:about="">
        <dc:format>image/svg+xml</dc:format>
        <dc:type
           rdf:resource="http://purl.org/dc/dcmitype/StillImage" />
        <dc:title />
      </cc:Work>
    </rdf:RDF>
  </metadata>
  <defs
     id="defs1441" />
  <sodipodi:namedview
     pagecolor="#ffffff"
     bordercolor="#666666"
     borderopacity="1"
     objecttolerance="10"
     gridtolerance="10"
     guidetolerance="10"
     inkscape:pageopacity="0"
     inkscape:pageshadow="2"
     inkscape:window-width="3840"
     inkscape:window-height="2031"
     id="namedview1439"
     showgrid="false"
     inkscape:zoom="4.72"
     inkscape:cx="9.6023786"
     inkscape:cy="101.32577"
     inkscape:window-x="0"
     inkscape:window-y="55"
     inkscape:window-maximized="1"
     inkscape:current-layer="svg1437" />
  <g
     id="g1474"
     transform="matrix(0.94903257,0,0,0.94903257,5.0967447,5.096741)">
    <path
       style="fill:#2e3c91"
       d="m 90.256859,199.60014 c -7.381398,-0.90389 -19.82671,-4.69862 -27.578517,-8.40903 -21.16472,-10.13052 -37.12146,-28.48911 -44.5908,-51.30273 -3.220043,-9.83498 -3.768709,-16.98814 -3.773499,-25.6204 -0.0049,-8.85027 0.611261,-16.864133 3.839639,-26.271699 5.736826,-16.717245 17.238311,-33.10547 28.042643,-39.957375 11.162312,-7.078928 25.060534,0.347084 25.060534,13.39019 0,6.239142 -0.850313,7.80871 -8.638465,15.945496 -20.59136,21.513127 -20.368065,53.073128 0.522987,73.917518 10.430682,10.40739 21.389758,14.86311 36.615482,14.88705 14.521427,0.0228 27.029687,-5.17674 36.999997,-15.38057 7.27379,-7.44415 10.90391,-13.93252 13.52185,-24.16856 2.49065,-9.73832 2.49065,-15.0908 0,-24.82912 -2.60142,-10.171473 -5.93172,-16.070692 -14.18143,-25.120703 -7.46097,-8.184748 -8.3163,-10.160411 -7.60474,-17.565716 1.13521,-11.814392 14.44744,-17.728436 24.81854,-11.0258 14.82704,9.582426 27.81756,32.320183 31.03446,54.320699 7.18887,49.16497 -31.08624,95.12473 -80.96086,97.2157 -5.295297,0.222 -11.202821,0.21077 -13.127821,-0.0249 z m 0.5,-68.22019 -8,-5.78087 L 82.23619,68.65727 C 81.949822,37.339281 81.612322,11.653052 81.48619,11.576762 81.360058,11.500472 79.577643,11.12303 77.525269,10.738002 71.36671,9.5826494 70.256859,8.581318 70.256859,4.1802869 V 0.21547071 H 99.756863 129.25686 V 3.7154707 c 0,4.398634 -2.92179,7.5000003 -7.06574,7.5000003 -1.68616,0 -3.93616,0.465833 -5,1.035184 -1.8766,1.004326 -1.93426,2.6861 -1.93426,56.418996 v 55.383809 l -7.21063,6.58101 c -3.96584,3.61955 -7.67834,6.56871 -8.249997,6.55368 -0.57166,-0.015 -4.639374,-2.62871 -9.039374,-5.8082 z m 17.386311,-9.52748 c 0.81794,-0.98557 1.05954,-16.2859 0.87244,-55.250011 -0.25513,-53.13407 -0.28669,-53.886988 -2.25875,-53.886988 -1.9721,0 -2.00362,0.753285 -2.25986,54 -0.14292,29.7 -0.0445,54.562509 0.21862,55.250009 0.62532,1.63365 2.01601,1.5878 3.42755,-0.11301 z M 122.82596,5.1036673 c 0.37792,-0.6114919 0.067,-1.5046011 -0.69098,-1.9846872 -1.6513,-1.0459111 -13.35337,-1.0125205 -16.87812,0.04816 -2.39167,0.7197087 -2.34833,0.7801074 1,1.3937969 3.11182,0.5703412 6.3903,0.9262864 13.69098,1.4864308 1.20504,0.092457 2.5002,-0.3322084 2.87812,-0.9437005 z"
       id="path1467"
       inkscape:connector-curvature="0"
       sodipodi:nodetypes="cssassssscsscsssssccccsssscccsssscscccsssccscssss" />
  </g>
</svg>
